# xmcd
#
# Track frame offsets:
#	150
#	39225
#	71377
#	96830
#	123318
#	156820
#	179250
#	225026
#	244372
#	260317
#
# Disc length: 3706 seconds
#
# Revision: 1
# Processed by: cddbd v1.5.2PL0 Copyright (c) Steve Scherf et al.
# Submitted via: audiograbber 1.83.01
#
DISCID=730e780a
DTITLE=Grateful Dead - 71-07-02 Fillmore West, San Francisco CA
DYEAR=1900
DGENRE=
TTITLE0=Bertha
TTITLE1=Me and Bobby McGee
TTITLE2=Next Time You See Me
TTITLE3=China Cat Sunflower
TTITLE4=I Know You Rider
TTITLE5=Playing In The Band
TTITLE6=Loser
TTITLE7=The Rub
TTITLE8=Me and My Uncle
TTITLE9=Big Railroad Blues
EXTD=
EXTT0=
EXTT1=
EXTT2=
EXTT3=
EXTT4=
EXTT5=
EXTT6=
EXTT7=
EXTT8=
EXTT9=
PLAYORDER=
